<?xml version="1.0" standalone="no"?>
<!DOCTYPE svg PUBLIC "-//W3C//DTD SVG 20010904//EN"
 "http://www.w3.org/TR/2001/REC-SVG-20010904/DTD/svg10.dtd">
<svg version="1.0" xmlns="http://www.w3.org/2000/svg"
 width="640.000000pt" height="640.000000pt" viewBox="0 0 640.000000 640.000000"
 preserveAspectRatio="xMidYMid meet">
<metadata>
Created by potrace 1.14, written by Peter Selinger 2001-2017
</metadata>
<g transform="translate(0.000000,640.000000) scale(0.100000,-0.100000)"
fill="#000000" stroke="none">
<path d="M2305 5420 c-248 -44 -430 -115 -630 -247 -358 -237 -609 -617 -690
-1043 -9 -47 -19 -148 -22 -225 -3 -77 -8 -143 -12 -146 -3 -3 -37 -18 -76
-34 -115 -48 -273 -143 -352 -212 -268 -236 -421 -489 -494 -823 -19 -86 -23
-135 -24 -275 0 -182 4 -226 34 -350 67 -274 213 -527 415 -714 21 -20 44 -41
50 -46 6 -6 38 -31 71 -56 167 -125 333 -202 550 -256 l110 -28 2005 -2 c1913
-2 2010 -1 2105 16 495 92 892 459 1014 938 31 119 36 174 35 348 -1 137 -5
176 -27 268 -107 437 -420 780 -838 920 -41 14 -91 28 -112 32 -29 6 -37 11
-32 23 36 94 50 185 50 327 0 91 -5 172 -14 205 -87 362 -338 627 -688 727
-122 35 -320 41 -443 14 -107 -24 -209 -62 -282 -106 l-58 -34 -52 77 c-186
278 -426 476 -735 606 -61 25 -211 72 -262 81 -14 2 -51 10 -81 16 -97 20
-401 20 -515 -1z"/>
</g>
</svg>
